<svg width="1200" height="800" viewBox="0 0 1200 800" fill="none" xmlns="http://www.w3.org/2000/svg">
<g clip-path="url(#clip0_533_165)">
<path d="M384.5 114.5L518.5 130.45M463.5 440L365.5 368.5L260 330L154.5 269L20 299.5M20 299.5L147.5 382L63.25 439.75L20 299.5ZM20 299.5L-98.5 246.5L51 191L-15.5 114.5L63.25 39.75L-34.5 -31.5" stroke="#0B3E5F" stroke-width="0.5"/>
<path d="M-15.5 114.5L118.5 130.5L195 191L301.5 246.5L154.25 268.75L50.75 190.75M185 452.5L147.5 382" stroke="#0B3E5F" stroke-width="0.5"/>
<path d="M260 330L289 421L365.5 368.5L420 299.5L301.5 246.5L260 330ZM260 330L147.5 382L154.5 269L195 191L269.5 134.5L384.5 114.5L288.75 20.75L185 52.5L147.5 -18L63.25 39.75L118.5 130.5L51 191L20 299.5L-34.5 368.5L63.5 440" stroke="#0B3E5F" stroke-width="0.5"/>
<path d="M260 -70L289.25 21.25L365.5 -31.5M301.5 246.5L269.5 134.5M269.5 134.5L118.5 130.5L185 52.5M269.5 134.5L451 191M195 191H51" stroke="#0B3E5F" stroke-width="0.5"/>
<path d="M-111 21L63.25 39.75L185 52.5L269.5 134.5L288.75 20.75M288.75 20.75L463.5 40L384.5 114.5L451 191L301.5 246.5L365.5 368.5M288.75 20.75L147.5 -18M289 421L147.5 382M20 -100.5L63.5 40M51 191L-130.5 134.5" stroke="#0B3E5F" stroke-width="0.5"/>
<path d="M384.5 117C385.881 117 387 115.881 387 114.5C387 113.119 385.881 112 384.5 112C383.119 112 382 113.119 382 114.5C382 115.881 383.119 117 384.5 117Z" fill="#105989"/>
<path d="M269.5 137C270.881 137 272 135.881 272 134.5C272 133.119 270.881 132 269.5 132C268.119 132 267 133.119 267 134.5C267 135.881 268.119 137 269.5 137Z" fill="#105989"/>
<path d="M301.5 249C302.881 249 304 247.881 304 246.5C304 245.119 302.881 244 301.5 244C300.119 244 299 245.119 299 246.5C299 247.881 300.119 249 301.5 249Z" fill="#105989"/>
<path d="M365.5 371C366.881 371 368 369.881 368 368.5C368 367.119 366.881 366 365.5 366C364.119 366 363 367.119 363 368.5C363 369.881 364.119 371 365.5 371Z" fill="#105989"/>
<path d="M260 332.5C261.381 332.5 262.5 331.381 262.5 330C262.5 328.619 261.381 327.5 260 327.5C258.619 327.5 257.5 328.619 257.5 330C257.5 331.381 258.619 332.5 260 332.5Z" fill="#105989"/>
<path d="M154.5 271.5C155.881 271.5 157 270.381 157 269C157 267.619 155.881 266.5 154.5 266.5C153.119 266.5 152 267.619 152 269C152 270.381 153.119 271.5 154.5 271.5Z" fill="#105989"/>
<path d="M147.5 384.5C148.881 384.5 150 383.381 150 382C150 380.619 148.881 379.5 147.5 379.5C146.119 379.5 145 380.619 145 382C145 383.381 146.119 384.5 147.5 384.5Z" fill="#105989"/>
<path d="M20 302C21.3807 302 22.5 300.881 22.5 299.5C22.5 298.119 21.3807 297 20 297C18.6193 297 17.5 298.119 17.5 299.5C17.5 300.881 18.6193 302 20 302Z" fill="#105989"/>
<path d="M51 193.5C52.3807 193.5 53.5 192.381 53.5 191C53.5 189.619 52.3807 188.5 51 188.5C49.6193 188.5 48.5 189.619 48.5 191C48.5 192.381 49.6193 193.5 51 193.5Z" fill="#105989"/>
<path d="M63.5 42.5C64.8807 42.5 66 41.3807 66 40C66 38.6193 64.8807 37.5 63.5 37.5C62.1193 37.5 61 38.6193 61 40C61 41.3807 62.1193 42.5 63.5 42.5Z" fill="#105989"/>
<path d="M185 55C186.381 55 187.5 53.8807 187.5 52.5C187.5 51.1193 186.381 50 185 50C183.619 50 182.5 51.1193 182.5 52.5C182.5 53.8807 183.619 55 185 55Z" fill="#105989"/>
<path d="M289 23.5C290.381 23.5 291.5 22.3807 291.5 21C291.5 19.6193 290.381 18.5 289 18.5C287.619 18.5 286.5 19.6193 286.5 21C286.5 22.3807 287.619 23.5 289 23.5Z" fill="#105989"/>
<path d="M118.5 133C119.881 133 121 131.881 121 130.5C121 129.119 119.881 128 118.5 128C117.119 128 116 129.119 116 130.5C116 131.881 117.119 133 118.5 133Z" fill="#105989"/>
<path d="M195 193.5C196.381 193.5 197.5 192.381 197.5 191C197.5 189.619 196.381 188.5 195 188.5C193.619 188.5 192.5 189.619 192.5 191C192.5 192.381 193.619 193.5 195 193.5Z" fill="#105989"/>
</g>
<g clip-path="url(#clip1_533_165)">
<path d="M1184.5 114.5L1318.5 130.45M1263.5 440L1165.5 368.5L1060 330L954.5 269L820 299.5M820 299.5L947.5 382L863.25 439.75L820 299.5ZM820 299.5L701.5 246.5L851 191L784.5 114.5L863.25 39.75L765.5 -31.5" stroke="#0B3E5F" stroke-width="0.5"/>
<path d="M784.5 114.5L918.5 130.5L995 191L1101.5 246.5L954.25 268.75L850.75 190.75M985 452.5L947.5 382" stroke="#0B3E5F" stroke-width="0.5"/>
<path d="M1060 330L1089 421L1165.5 368.5L1220 299.5L1101.5 246.5L1060 330ZM1060 330L947.5 382L954.5 269L995 191L1069.5 134.5L1184.5 114.5L1088.75 20.75L985 52.5L947.5 -18L863.25 39.75L918.5 130.5L851 191L820 299.5L765.5 368.5L863.5 440" stroke="#0B3E5F" stroke-width="0.5"/>
<path d="M1060 -70L1089.25 21.25L1165.5 -31.5M1101.5 246.5L1069.5 134.5M1069.5 134.5L918.5 130.5L985 52.5M1069.5 134.5L1251 191M995 191H851" stroke="#0B3E5F" stroke-width="0.5"/>
<path d="M689 21L863.25 39.75L985 52.5L1069.5 134.5L1088.75 20.75M1088.75 20.75L1263.5 40L1184.5 114.5L1251 191L1101.5 246.5L1165.5 368.5M1088.75 20.75L947.5 -18M1089 421L947.5 382M820 -100.5L863.5 40M851 191L669.5 134.5" stroke="#0B3E5F" stroke-width="0.5"/>
<path d="M1184.5 117C1185.88 117 1187 115.881 1187 114.5C1187 113.119 1185.88 112 1184.5 112C1183.12 112 1182 113.119 1182 114.5C1182 115.881 1183.12 117 1184.5 117Z" fill="#105989"/>
<path d="M1069.5 137C1070.88 137 1072 135.881 1072 134.5C1072 133.119 1070.88 132 1069.5 132C1068.12 132 1067 133.119 1067 134.5C1067 135.881 1068.12 137 1069.5 137Z" fill="#105989"/>
<path d="M1101.5 249C1102.88 249 1104 247.881 1104 246.5C1104 245.119 1102.88 244 1101.5 244C1100.12 244 1099 245.119 1099 246.5C1099 247.881 1100.12 249 1101.5 249Z" fill="#105989"/>
<path d="M1165.5 371C1166.88 371 1168 369.881 1168 368.5C1168 367.119 1166.88 366 1165.5 366C1164.12 366 1163 367.119 1163 368.5C1163 369.881 1164.12 371 1165.5 371Z" fill="#105989"/>
<path d="M1060 332.5C1061.38 332.5 1062.5 331.381 1062.5 330C1062.5 328.619 1061.38 327.5 1060 327.5C1058.62 327.5 1057.5 328.619 1057.5 330C1057.5 331.381 1058.62 332.5 1060 332.5Z" fill="#105989"/>
<path d="M954.5 271.5C955.881 271.5 957 270.381 957 269C957 267.619 955.881 266.5 954.5 266.5C953.119 266.5 952 267.619 952 269C952 270.381 953.119 271.5 954.5 271.5Z" fill="#105989"/>
<path d="M947.5 384.5C948.881 384.5 950 383.381 950 382C950 380.619 948.881 379.5 947.5 379.5C946.119 379.5 945 380.619 945 382C945 383.381 946.119 384.5 947.5 384.5Z" fill="#105989"/>
<path d="M820 302C821.381 302 822.5 300.881 822.5 299.5C822.5 298.119 821.381 297 820 297C818.619 297 817.5 298.119 817.5 299.5C817.5 300.881 818.619 302 820 302Z" fill="#105989"/>
<path d="M851 193.5C852.381 193.5 853.5 192.381 853.5 191C853.5 189.619 852.381 188.5 851 188.5C849.619 188.5 848.5 189.619 848.5 191C848.5 192.381 849.619 193.5 851 193.5Z" fill="#105989"/>
<path d="M863.5 42.5C864.881 42.5 866 41.3807 866 40C866 38.6193 864.881 37.5 863.5 37.5C862.119 37.5 861 38.6193 861 40C861 41.3807 862.119 42.5 863.5 42.5Z" fill="#105989"/>
<path d="M985 55C986.381 55 987.5 53.8807 987.5 52.5C987.5 51.1193 986.381 50 985 50C983.619 50 982.5 51.1193 982.5 52.5C982.5 53.8807 983.619 55 985 55Z" fill="#105989"/>
<path d="M1089 23.5C1090.38 23.5 1091.5 22.3807 1091.5 21C1091.5 19.6193 1090.38 18.5 1089 18.5C1087.62 18.5 1086.5 19.6193 1086.5 21C1086.5 22.3807 1087.62 23.5 1089 23.5Z" fill="#105989"/>
<path d="M918.5 133C919.881 133 921 131.881 921 130.5C921 129.119 919.881 128 918.5 128C917.119 128 916 129.119 916 130.5C916 131.881 917.119 133 918.5 133Z" fill="#105989"/>
<path d="M995 193.5C996.381 193.5 997.5 192.381 997.5 191C997.5 189.619 996.381 188.5 995 188.5C993.619 188.5 992.5 189.619 992.5 191C992.5 192.381 993.619 193.5 995 193.5Z" fill="#105989"/>
</g>
<g clip-path="url(#clip2_533_165)">
<path d="M1184.5 514.5L1318.5 530.45M1263.5 840L1165.5 768.5L1060 730L954.5 669L820 699.5M820 699.5L947.5 782L863.25 839.75L820 699.5ZM820 699.5L701.5 646.5L851 591L784.5 514.5L863.25 439.75L765.5 368.5" stroke="#0B3E5F" stroke-width="0.5"/>
<path d="M784.5 514.5L918.5 530.5L995 591L1101.5 646.5L954.25 668.75L850.75 590.75M985 852.5L947.5 782" stroke="#0B3E5F" stroke-width="0.5"/>
<path d="M1060 730L1089 821L1165.5 768.5L1220 699.5L1101.5 646.5L1060 730ZM1060 730L947.5 782L954.5 669L995 591L1069.5 534.5L1184.5 514.5L1088.75 420.75L985 452.5L947.5 382L863.25 439.75L918.5 530.5L851 591L820 699.5L765.5 768.5L863.5 840" stroke="#0B3E5F" stroke-width="0.5"/>
<path d="M1060 330L1089.25 421.25L1165.5 368.5M1101.5 646.5L1069.5 534.5M1069.5 534.5L918.5 530.5L985 452.5M1069.5 534.5L1251 591M995 591H851" stroke="#0B3E5F" stroke-width="0.5"/>
<path d="M689 421L863.25 439.75L985 452.5L1069.5 534.5L1088.75 420.75M1088.75 420.75L1263.5 440L1184.5 514.5L1251 591L1101.5 646.5L1165.5 768.5M1088.75 420.75L947.5 382M1089 821L947.5 782M820 299.5L863.5 440M851 591L669.5 534.5" stroke="#0B3E5F" stroke-width="0.5"/>
<path d="M1184.5 517C1185.88 517 1187 515.881 1187 514.5C1187 513.119 1185.88 512 1184.5 512C1183.12 512 1182 513.119 1182 514.5C1182 515.881 1183.12 517 1184.5 517Z" fill="#105989"/>
<path d="M1069.5 537C1070.88 537 1072 535.881 1072 534.5C1072 533.119 1070.88 532 1069.5 532C1068.12 532 1067 533.119 1067 534.5C1067 535.881 1068.12 537 1069.5 537Z" fill="#105989"/>
<path d="M1101.5 649C1102.88 649 1104 647.881 1104 646.5C1104 645.119 1102.88 644 1101.5 644C1100.12 644 1099 645.119 1099 646.5C1099 647.881 1100.12 649 1101.5 649Z" fill="#105989"/>
<path d="M1165.5 771C1166.88 771 1168 769.881 1168 768.5C1168 767.119 1166.88 766 1165.5 766C1164.12 766 1163 767.119 1163 768.5C1163 769.881 1164.12 771 1165.5 771Z" fill="#105989"/>
<path d="M1060 732.5C1061.38 732.5 1062.5 731.381 1062.5 730C1062.5 728.619 1061.38 727.5 1060 727.5C1058.62 727.5 1057.5 728.619 1057.5 730C1057.5 731.381 1058.62 732.5 1060 732.5Z" fill="#105989"/>
<path d="M954.5 671.5C955.881 671.5 957 670.381 957 669C957 667.619 955.881 666.5 954.5 666.5C953.119 666.5 952 667.619 952 669C952 670.381 953.119 671.5 954.5 671.5Z" fill="#105989"/>
<path d="M947.5 784.5C948.881 784.5 950 783.381 950 782C950 780.619 948.881 779.5 947.5 779.5C946.119 779.5 945 780.619 945 782C945 783.381 946.119 784.5 947.5 784.5Z" fill="#105989"/>
<path d="M820 702C821.381 702 822.5 700.881 822.5 699.5C822.5 698.119 821.381 697 820 697C818.619 697 817.5 698.119 817.5 699.5C817.5 700.881 818.619 702 820 702Z" fill="#105989"/>
<path d="M851 593.5C852.381 593.5 853.5 592.381 853.5 591C853.5 589.619 852.381 588.5 851 588.5C849.619 588.5 848.5 589.619 848.5 591C848.5 592.381 849.619 593.5 851 593.5Z" fill="#105989"/>
<path d="M863.5 442.5C864.881 442.5 866 441.381 866 440C866 438.619 864.881 437.5 863.5 437.5C862.119 437.5 861 438.619 861 440C861 441.381 862.119 442.5 863.5 442.5Z" fill="#105989"/>
<path d="M985 455C986.381 455 987.5 453.881 987.5 452.5C987.5 451.119 986.381 450 985 450C983.619 450 982.5 451.119 982.5 452.5C982.5 453.881 983.619 455 985 455Z" fill="#105989"/>
<path d="M1089 423.5C1090.38 423.5 1091.5 422.381 1091.5 421C1091.5 419.619 1090.38 418.5 1089 418.5C1087.62 418.5 1086.5 419.619 1086.5 421C1086.5 422.381 1087.62 423.5 1089 423.5Z" fill="#105989"/>
<path d="M918.5 533C919.881 533 921 531.881 921 530.5C921 529.119 919.881 528 918.5 528C917.119 528 916 529.119 916 530.5C916 531.881 917.119 533 918.5 533Z" fill="#105989"/>
<path d="M995 593.5C996.381 593.5 997.5 592.381 997.5 591C997.5 589.619 996.381 588.5 995 588.5C993.619 588.5 992.5 589.619 992.5 591C992.5 592.381 993.619 593.5 995 593.5Z" fill="#105989"/>
</g>
<g clip-path="url(#clip3_533_165)">
<path d="M415.5 114.5L281.5 130.45M336.5 440L434.5 368.5L540 330L645.5 269L780 299.5M780 299.5L652.5 382L736.75 439.75L780 299.5ZM780 299.5L898.5 246.5L749 191L815.5 114.5L736.75 39.75L834.5 -31.5" stroke="#0B3E5F" stroke-width="0.5"/>
<path d="M815.5 114.5L681.5 130.5L605 191L498.5 246.5L645.75 268.75L749.25 190.75M615 452.5L652.5 382" stroke="#0B3E5F" stroke-width="0.5"/>
<path d="M540 330L511 421L434.5 368.5L380 299.5L498.5 246.5L540 330ZM540 330L652.5 382L645.5 269L605 191L530.5 134.5L415.5 114.5L511.25 20.75L615 52.5L652.5 -18L736.75 39.75L681.5 130.5L749 191L780 299.5L834.5 368.5L736.5 440" stroke="#0B3E5F" stroke-width="0.5"/>
<path d="M540 -70L510.75 21.25L434.5 -31.5M498.5 246.5L530.5 134.5M530.5 134.5L681.5 130.5L615 52.5M530.5 134.5L349 191M605 191H749" stroke="#0B3E5F" stroke-width="0.5"/>
<path d="M911 21L736.75 39.75L615 52.5L530.5 134.5L511.25 20.75M511.25 20.75L336.5 40L415.5 114.5L349 191L498.5 246.5L434.5 368.5M511.25 20.75L652.5 -18M511 421L652.5 382M780 -100.5L736.5 40M749 191L930.5 134.5" stroke="#0B3E5F" stroke-width="0.5"/>
<path d="M415.5 117C414.119 117 413 115.881 413 114.5C413 113.119 414.119 112 415.5 112C416.881 112 418 113.119 418 114.5C418 115.881 416.881 117 415.5 117Z" fill="#105989"/>
<path d="M530.5 137C529.119 137 528 135.881 528 134.5C528 133.119 529.119 132 530.5 132C531.881 132 533 133.119 533 134.5C533 135.881 531.881 137 530.5 137Z" fill="#105989"/>
<path d="M498.5 249C497.119 249 496 247.881 496 246.5C496 245.119 497.119 244 498.5 244C499.881 244 501 245.119 501 246.5C501 247.881 499.881 249 498.5 249Z" fill="#105989"/>
<path d="M434.5 371C433.119 371 432 369.881 432 368.5C432 367.119 433.119 366 434.5 366C435.881 366 437 367.119 437 368.5C437 369.881 435.881 371 434.5 371Z" fill="#105989"/>
<path d="M540 332.5C538.619 332.5 537.5 331.381 537.5 330C537.5 328.619 538.619 327.5 540 327.5C541.381 327.5 542.5 328.619 542.5 330C542.5 331.381 541.381 332.5 540 332.5Z" fill="#105989"/>
<path d="M645.5 271.5C644.119 271.5 643 270.381 643 269C643 267.619 644.119 266.5 645.5 266.5C646.881 266.5 648 267.619 648 269C648 270.381 646.881 271.5 645.5 271.5Z" fill="#105989"/>
<path d="M652.5 384.5C651.119 384.5 650 383.381 650 382C650 380.619 651.119 379.5 652.5 379.5C653.881 379.5 655 380.619 655 382C655 383.381 653.881 384.5 652.5 384.5Z" fill="#105989"/>
<path d="M780 302C778.619 302 777.5 300.881 777.5 299.5C777.5 298.119 778.619 297 780 297C781.381 297 782.5 298.119 782.5 299.5C782.5 300.881 781.381 302 780 302Z" fill="#105989"/>
<path d="M749 193.5C747.619 193.5 746.5 192.381 746.5 191C746.5 189.619 747.619 188.5 749 188.5C750.381 188.5 751.5 189.619 751.5 191C751.5 192.381 750.381 193.5 749 193.5Z" fill="#105989"/>
<path d="M736.5 42.5C735.119 42.5 734 41.3807 734 40C734 38.6193 735.119 37.5 736.5 37.5C737.881 37.5 739 38.6193 739 40C739 41.3807 737.881 42.5 736.5 42.5Z" fill="#105989"/>
<path d="M615 55C613.619 55 612.5 53.8807 612.5 52.5C612.5 51.1193 613.619 50 615 50C616.381 50 617.5 51.1193 617.5 52.5C617.5 53.8807 616.381 55 615 55Z" fill="#105989"/>
<path d="M511 23.5C509.619 23.5 508.5 22.3807 508.5 21C508.5 19.6193 509.619 18.5 511 18.5C512.381 18.5 513.5 19.6193 513.5 21C513.5 22.3807 512.381 23.5 511 23.5Z" fill="#105989"/>
<path d="M681.5 133C680.119 133 679 131.881 679 130.5C679 129.119 680.119 128 681.5 128C682.881 128 684 129.119 684 130.5C684 131.881 682.881 133 681.5 133Z" fill="#105989"/>
<path d="M605 193.5C603.619 193.5 602.5 192.381 602.5 191C602.5 189.619 603.619 188.5 605 188.5C606.381 188.5 607.5 189.619 607.5 191C607.5 192.381 606.381 193.5 605 193.5Z" fill="#105989"/>
</g>
<g clip-path="url(#clip4_533_165)">
<path d="M384.625 514.5L518.625 530.45M463.625 840L365.625 768.5L260.125 730L154.625 669L20.125 699.5M20.125 699.5L147.625 782L63.375 839.75L20.125 699.5ZM20.125 699.5L-98.375 646.5L51.125 591L-15.375 514.5L63.375 439.75L-34.375 368.5" stroke="#0B3E5F" stroke-width="0.5"/>
<path d="M-15.375 514.5L118.625 530.5L195.125 591L301.625 646.5L154.375 668.75L50.875 590.75M185.125 852.5L147.625 782" stroke="#0B3E5F" stroke-width="0.5"/>
<path d="M260.125 730L289.125 821L365.625 768.5L420.125 699.5L301.625 646.5L260.125 730ZM260.125 730L147.625 782L154.625 669L195.125 591L269.625 534.5L384.625 514.5L288.875 420.75L185.125 452.5L147.625 382L63.375 439.75L118.625 530.5L51.125 591L20.125 699.5L-34.375 768.5L63.625 840" stroke="#0B3E5F" stroke-width="0.5"/>
<path d="M260.125 330L289.375 421.25L365.625 368.5M301.625 646.5L269.625 534.5M269.625 534.5L118.625 530.5L185.125 452.5M269.625 534.5L451.125 591M195.125 591H51.125" stroke="#0B3E5F" stroke-width="0.5"/>
<path d="M-110.875 421L63.375 439.75L185.125 452.5L269.625 534.5L288.875 420.75M288.875 420.75L463.625 440L384.625 514.5L451.125 591L301.625 646.5L365.625 768.5M288.875 420.75L147.625 382M289.125 821L147.625 782M20.125 299.5L63.625 440M51.125 591L-130.375 534.5" stroke="#0B3E5F" stroke-width="0.5"/>
<path d="M384.625 517C386.006 517 387.125 515.881 387.125 514.5C387.125 513.119 386.006 512 384.625 512C383.244 512 382.125 513.119 382.125 514.5C382.125 515.881 383.244 517 384.625 517Z" fill="#105989"/>
<path d="M269.625 537C271.006 537 272.125 535.881 272.125 534.5C272.125 533.119 271.006 532 269.625 532C268.244 532 267.125 533.119 267.125 534.5C267.125 535.881 268.244 537 269.625 537Z" fill="#105989"/>
<path d="M301.625 649C303.006 649 304.125 647.881 304.125 646.5C304.125 645.119 303.006 644 301.625 644C300.244 644 299.125 645.119 299.125 646.5C299.125 647.881 300.244 649 301.625 649Z" fill="#105989"/>
<path d="M365.625 771C367.006 771 368.125 769.881 368.125 768.5C368.125 767.119 367.006 766 365.625 766C364.244 766 363.125 767.119 363.125 768.5C363.125 769.881 364.244 771 365.625 771Z" fill="#105989"/>
<path d="M260.125 732.5C261.506 732.5 262.625 731.381 262.625 730C262.625 728.619 261.506 727.5 260.125 727.5C258.744 727.5 257.625 728.619 257.625 730C257.625 731.381 258.744 732.5 260.125 732.5Z" fill="#105989"/>
<path d="M154.625 671.5C156.006 671.5 157.125 670.381 157.125 669C157.125 667.619 156.006 666.5 154.625 666.5C153.244 666.5 152.125 667.619 152.125 669C152.125 670.381 153.244 671.5 154.625 671.5Z" fill="#105989"/>
<path d="M147.625 784.5C149.006 784.5 150.125 783.381 150.125 782C150.125 780.619 149.006 779.5 147.625 779.5C146.244 779.5 145.125 780.619 145.125 782C145.125 783.381 146.244 784.5 147.625 784.5Z" fill="#105989"/>
<path d="M20.125 702C21.5057 702 22.625 700.881 22.625 699.5C22.625 698.119 21.5057 697 20.125 697C18.7443 697 17.625 698.119 17.625 699.5C17.625 700.881 18.7443 702 20.125 702Z" fill="#105989"/>
<path d="M51.125 593.5C52.5057 593.5 53.625 592.381 53.625 591C53.625 589.619 52.5057 588.5 51.125 588.5C49.7443 588.5 48.625 589.619 48.625 591C48.625 592.381 49.7443 593.5 51.125 593.5Z" fill="#105989"/>
<path d="M63.625 442.5C65.0057 442.5 66.125 441.381 66.125 440C66.125 438.619 65.0057 437.5 63.625 437.5C62.2443 437.5 61.125 438.619 61.125 440C61.125 441.381 62.2443 442.5 63.625 442.5Z" fill="#105989"/>
<path d="M185.125 455C186.506 455 187.625 453.881 187.625 452.5C187.625 451.119 186.506 450 185.125 450C183.744 450 182.625 451.119 182.625 452.5C182.625 453.881 183.744 455 185.125 455Z" fill="#105989"/>
<path d="M289.125 423.5C290.506 423.5 291.625 422.381 291.625 421C291.625 419.619 290.506 418.5 289.125 418.5C287.744 418.5 286.625 419.619 286.625 421C286.625 422.381 287.744 423.5 289.125 423.5Z" fill="#105989"/>
<path d="M118.625 533C120.006 533 121.125 531.881 121.125 530.5C121.125 529.119 120.006 528 118.625 528C117.244 528 116.125 529.119 116.125 530.5C116.125 531.881 117.244 533 118.625 533Z" fill="#105989"/>
<path d="M195.125 593.5C196.506 593.5 197.625 592.381 197.625 591C197.625 589.619 196.506 588.5 195.125 588.5C193.744 588.5 192.625 589.619 192.625 591C192.625 592.381 193.744 593.5 195.125 593.5Z" fill="#105989"/>
</g>
<g clip-path="url(#clip5_533_165)">
<path d="M415.625 514.5L281.625 530.45M336.625 840L434.625 768.5L540.125 730L645.625 669L780.125 699.5M780.125 699.5L652.625 782L736.875 839.75L780.125 699.5ZM780.125 699.5L898.625 646.5L749.125 591L815.625 514.5L736.875 439.75L834.625 368.5" stroke="#0B3E5F" stroke-width="0.5"/>
<path d="M815.625 514.5L681.625 530.5L605.125 591L498.625 646.5L645.875 668.75L749.375 590.75M615.125 852.5L652.625 782" stroke="#0B3E5F" stroke-width="0.5"/>
<path d="M540.125 730L511.125 821L434.625 768.5L380.125 699.5L498.625 646.5L540.125 730ZM540.125 730L652.625 782L645.625 669L605.125 591L530.625 534.5L415.625 514.5L511.375 420.75L615.125 452.5L652.625 382L736.875 439.75L681.625 530.5L749.125 591L780.125 699.5L834.625 768.5L736.625 840" stroke="#0B3E5F" stroke-width="0.5"/>
<path d="M540.125 330L510.875 421.25L434.625 368.5M498.625 646.5L530.625 534.5M530.625 534.5L681.625 530.5L615.125 452.5M530.625 534.5L349.125 591M605.125 591H749.125" stroke="#0B3E5F" stroke-width="0.5"/>
<path d="M911.125 421L736.875 439.75L615.125 452.5L530.625 534.5L511.375 420.75M511.375 420.75L336.625 440L415.625 514.5L349.125 591L498.625 646.5L434.625 768.5M511.375 420.75L652.625 382M511.125 821L652.625 782M780.125 299.5L736.625 440M749.125 591L930.625 534.5" stroke="#0B3E5F" stroke-width="0.5"/>
<path d="M415.625 517C414.244 517 413.125 515.881 413.125 514.5C413.125 513.119 414.244 512 415.625 512C417.006 512 418.125 513.119 418.125 514.5C418.125 515.881 417.006 517 415.625 517Z" fill="#105989"/>
<path d="M530.625 537C529.244 537 528.125 535.881 528.125 534.5C528.125 533.119 529.244 532 530.625 532C532.006 532 533.125 533.119 533.125 534.5C533.125 535.881 532.006 537 530.625 537Z" fill="#105989"/>
<path d="M498.625 649C497.244 649 496.125 647.881 496.125 646.5C496.125 645.119 497.244 644 498.625 644C500.006 644 501.125 645.119 501.125 646.5C501.125 647.881 500.006 649 498.625 649Z" fill="#105989"/>
<path d="M434.625 771C433.244 771 432.125 769.881 432.125 768.5C432.125 767.119 433.244 766 434.625 766C436.006 766 437.125 767.119 437.125 768.5C437.125 769.881 436.006 771 434.625 771Z" fill="#105989"/>
<path d="M540.125 732.5C538.744 732.5 537.625 731.381 537.625 730C537.625 728.619 538.744 727.5 540.125 727.5C541.506 727.5 542.625 728.619 542.625 730C542.625 731.381 541.506 732.5 540.125 732.5Z" fill="#105989"/>
<path d="M645.625 671.5C644.244 671.5 643.125 670.381 643.125 669C643.125 667.619 644.244 666.5 645.625 666.5C647.006 666.5 648.125 667.619 648.125 669C648.125 670.381 647.006 671.5 645.625 671.5Z" fill="#105989"/>
<path d="M652.625 784.5C651.244 784.5 650.125 783.381 650.125 782C650.125 780.619 651.244 779.5 652.625 779.5C654.006 779.5 655.125 780.619 655.125 782C655.125 783.381 654.006 784.5 652.625 784.5Z" fill="#105989"/>
<path d="M780.125 702C778.744 702 777.625 700.881 777.625 699.5C777.625 698.119 778.744 697 780.125 697C781.506 697 782.625 698.119 782.625 699.5C782.625 700.881 781.506 702 780.125 702Z" fill="#105989"/>
<path d="M749.125 593.5C747.744 593.5 746.625 592.381 746.625 591C746.625 589.619 747.744 588.5 749.125 588.5C750.506 588.5 751.625 589.619 751.625 591C751.625 592.381 750.506 593.5 749.125 593.5Z" fill="#105989"/>
<path d="M736.625 442.5C735.244 442.5 734.125 441.381 734.125 440C734.125 438.619 735.244 437.5 736.625 437.5C738.006 437.5 739.125 438.619 739.125 440C739.125 441.381 738.006 442.5 736.625 442.5Z" fill="#105989"/>
<path d="M615.125 455C613.744 455 612.625 453.881 612.625 452.5C612.625 451.119 613.744 450 615.125 450C616.506 450 617.625 451.119 617.625 452.5C617.625 453.881 616.506 455 615.125 455Z" fill="#105989"/>
<path d="M511.125 423.5C509.744 423.5 508.625 422.381 508.625 421C508.625 419.619 509.744 418.5 511.125 418.5C512.506 418.5 513.625 419.619 513.625 421C513.625 422.381 512.506 423.5 511.125 423.5Z" fill="#105989"/>
<path d="M681.625 533C680.244 533 679.125 531.881 679.125 530.5C679.125 529.119 680.244 528 681.625 528C683.006 528 684.125 529.119 684.125 530.5C684.125 531.881 683.006 533 681.625 533Z" fill="#105989"/>
<path d="M605.125 593.5C603.744 593.5 602.625 592.381 602.625 591C602.625 589.619 603.744 588.5 605.125 588.5C606.506 588.5 607.625 589.619 607.625 591C607.625 592.381 606.506 593.5 605.125 593.5Z" fill="#105989"/>
</g>
<defs>
<clipPath id="clip0_533_165">
<rect width="400" height="400" fill="white"/>
</clipPath>
<clipPath id="clip1_533_165">
<rect width="400" height="400" fill="white" transform="translate(800)"/>
</clipPath>
<clipPath id="clip2_533_165">
<rect width="400" height="400" fill="white" transform="translate(800 400)"/>
</clipPath>
<clipPath id="clip3_533_165">
<rect width="400" height="400" fill="white" transform="matrix(-1 0 0 1 800 0)"/>
</clipPath>
<clipPath id="clip4_533_165">
<rect width="400" height="400" fill="white" transform="translate(0.125 400)"/>
</clipPath>
<clipPath id="clip5_533_165">
<rect width="400" height="400" fill="white" transform="matrix(-1 0 0 1 800.125 400)"/>
</clipPath>
</defs>
</svg>
